# WaveFront *.obj file (generated by CINEMA 4D)

v 3.23730659484863 0.12702472507954 -0.18787774443626
v 3.23730659484863 0.22702471911907 -0.18787774443626
v 3.33730673789978 0.12702472507954 -0.18787774443626
v 3.33730673789978 0.22702471911907 -0.18787774443626
v 3.33730673789978 0.12702472507954 -0.2878777384758
v 3.33730673789978 0.22702471911907 -0.2878777384758
v 3.23730659484863 0.12702472507954 -0.2878777384758
v 3.23730659484863 0.22702471911907 -0.2878777384758
v 4.62754678726196 0.12702472507954 -0.18787774443626
v 4.62754678726196 0.22702471911907 -0.18787774443626
v 4.62754678726196 0.12702472507954 -0.2878777384758
v 4.62754678726196 0.22702471911907 -0.2878777384758
v 4.74164962768555 0.12702472507954 -0.18787774443626
v 4.74164962768555 0.22702471911907 -0.18787774443626
v 4.74164962768555 0.12702472507954 -0.2878777384758
v 4.74164962768555 0.22702471911907 -0.2878777384758
v 3.23730659484863 1.05243825912476 -0.18787774443626
v 3.33730673789978 1.05243825912476 -0.18787774443626
v 3.33730673789978 1.05243825912476 -0.2878777384758
v 3.23730659484863 1.05243825912476 -0.2878777384758
v 4.62754678726196 1.05243825912476 -0.18787774443626
v 4.62754678726196 1.05243825912476 -0.2878777384758
v 4.74164962768555 1.05243825912476 -0.18787774443626
v 4.74164962768555 1.05243825912476 -0.2878777384758
v 3.23730659484863 1.15846300125122 -0.18787774443626
v 3.33730673789978 1.15846300125122 -0.18787774443626
v 3.33730673789978 1.15846300125122 -0.2878777384758
v 3.23730659484863 1.15846300125122 -0.2878777384758
v 4.62754678726196 1.15846300125122 -0.18787774443626
v 4.62754678726196 1.15846300125122 -0.2878777384758
v 4.74164962768555 1.15846300125122 -0.18787774443626
v 4.74164962768555 1.15846300125122 -0.2878777384758
v 3.23730659484863 3.01626014709473 -0.18787774443626
v 3.33730673789978 3.01626014709473 -0.18787774443626
v 3.33730673789978 3.01626014709473 -0.2878777384758
v 3.23730659484863 3.01626014709473 -0.2878777384758
v 4.62754678726196 3.01626014709473 -0.18787774443626
v 4.62754678726196 3.01626014709473 -0.2878777384758
v 4.74164962768555 3.01626014709473 -0.18787774443626
v 4.74164962768555 3.01626014709473 -0.2878777384758
v 3.23730659484863 3.14879107475281 -0.18787774443626
v 3.33730673789978 3.14879107475281 -0.18787774443626
v 3.33730673789978 3.14879107475281 -0.2878777384758
v 3.23730659484863 3.14879107475281 -0.2878777384758
v 4.62754678726196 3.14879107475281 -0.18787774443626
v 4.62754678726196 3.14879107475281 -0.2878777384758
v 4.74164962768555 3.14879107475281 -0.18787774443626
v 4.74164962768555 3.14879107475281 -0.2878777384758
v 3.33730673789978 0.22702471911907 -0.21339969336987
v 3.33730673789978 0.22702471911907 -0.26235580444336
v 3.33730673789978 1.05243825912476 -0.21339969336987
v 3.33730673789978 1.05243825912476 -0.26235580444336
v 4.62754678726196 0.22702471911907 -0.21339969336987
v 4.62754678726196 0.22702471911907 -0.26235580444336
v 4.62754678726196 1.05243825912476 -0.21339969336987
v 4.62754678726196 1.05243825912476 -0.26235580444336
# 56 vertices

vn 0 0 1
vn 1 0 0
vn 0 0 -1
vn -1 0 0
vn 0 1 0
vn 0 -1 0
vn 0 0 0
vn -0 0 1
vn -0 0 1
# 9 normals

vt 0.39453440904617 0.26553237438202 0
vt 0.39453440904617 0.28955209255219 0
vt 0.41900342702866 0.28955209255219 0
vt 0.41900342702866 0.26553237438202 0
vt 0.78025668859482 0.26553237438202 0
vt 0.78025668859482 0.28955209255219 0
vt 0.8047257065773 0.28955209255219 0
vt 0.8047257065773 0.26553237438202 0
vt 0.35244113206863 0.26553237438202 0
vt 0.35244113206863 0.28955209255219 0
vt 0.37691015005112 0.28955209255219 0
vt 0.37691015005112 0.26553237438202 0
vt 0.82234996557236 0.26553237438202 0
vt 0.82234996557236 0.28955209255219 0
vt 0.84681898355484 0.28955209255219 0
vt 0.84681898355484 0.26553237438202 0
vt 0.90998733043671 0.28823149204254 0
vt 0.90998733043671 0.31225121021271 0
vt 0.93445634841919 0.31225121021271 0
vt 0.93445634841919 0.28823149204254 0
vt 0.00881211925298 0.00865030288696 0
vt 0.00881211925298 0.03266990184784 0
vt 0.03328114002943 0.03266990184784 0
vt 0.03328114002943 0.00865030288696 0
vt 0.34899026155472 0.03266990184784 0
vt 0.34899026155472 0.00865030288696 0
vt 0.03673201426864 0.26553237438202 0
vt 0.03673201426864 0.28955209255219 0
vt 0.67547875642776 0.20691168308258 0
vt 0.99118787050247 0.20691168308258 0
vt 0.99118787050247 0.18289196491241 0
vt 0.67547875642776 0.18289196491241 0
vt 0.73471254110336 0.28955209255219 0
vt 0.73471254110336 0.26553237438202 0
vt 0.37691015005112 0.03266990184784 0
vt 0.37691015005112 0.00865030288696 0
vt 0.00881211925298 0.26553237438202 0
vt 0.00881211925298 0.28955209255219 0
vt 0.86444318294525 0.31225121021271 0
vt 0.89236307144165 0.31225121021271 0
vt 0.89236307144165 0.28823149204254 0
vt 0.86444318294525 0.28823149204254 0
vt 0.76263242959976 0.28955209255219 0
vt 0.76263242959976 0.26553237438202 0
vt 0.39453440904617 0.48781335353851 0
vt 0.41900342702866 0.48781335353851 0
vt 0.94862973690033 0.71044796705246 0
vt 0.94862973690033 0.71657824516296 0
vt 0.94862973690033 0.72833734750748 0
vt 0.94862973690033 0.73446762561798 0
vt 0.35244113206863 0.48781335353851 0
vt 0.37691015005112 0.48781335353851 0
vt 0.82234996557236 0.48781335353851 0
vt 0.84681898355484 0.48781335353851 0
vt 0.94862973690033 0.99134969711304 0
vt 0.95487469434738 0.99134969711304 0
vt 0.95487469434738 0.79308837652206 0
vt 0.94862973690033 0.79308837652206 0
vt 0.73471254110336 0.48781335353851 0
vt 0.76263242959976 0.48781335353851 0
vt 0.78025668859482 0.48781335353851 0
vt 0.8047257065773 0.48781335353851 0
vt 0.00881211925298 0.48781335353851 0
vt 0.03673201426864 0.48781335353851 0
vt 0.39453440904617 0.51328015327454 0
vt 0.41900342702866 0.51328015327454 0
vt 0.78025668859482 0.95951628684998 0
vt 0.78025668859482 0.99134969711304 0
vt 0.8047257065773 0.99134969711304 0
vt 0.8047257065773 0.95951628684998 0
vt 0.35244113206863 0.51328015327454 0
vt 0.37691015005112 0.51328015327454 0
vt 0.82234996557236 0.51328015327454 0
vt 0.84681898355484 0.51328015327454 0
vt 0.00881211925298 0.95951628684998 0
vt 0.00881211925298 0.99134969711304 0
vt 0.03673201426864 0.99134969711304 0
vt 0.03673201426864 0.95951628684998 0
vt 0.73471254110336 0.51328015327454 0
vt 0.76263242959976 0.51328015327454 0
vt 0.78025668859482 0.51328015327454 0
vt 0.8047257065773 0.51328015327454 0
vt 0.00881211925298 0.51328015327454 0
vt 0.03673201426864 0.51328015327454 0
vt 0.39453440904617 0.95951628684998 0
vt 0.41900342702866 0.95951628684998 0
vt 0.86444318294525 0.54511362314224 0
vt 0.86444318294525 0.99134969711304 0
vt 0.88891220092773 0.99134969711304 0
vt 0.88891220092773 0.54511362314224 0
vt 0.35244113206863 0.95951628684998 0
vt 0.37691015005112 0.95951628684998 0
vt 0.82234996557236 0.95951628684998 0
vt 0.84681898355484 0.95951628684998 0
vt 0.90653645992279 0.54511362314224 0
vt 0.90653645992279 0.99134969711304 0
vt 0.93100547790527 0.99134969711304 0
vt 0.93100547790527 0.54511362314224 0
vt 0.73471254110336 0.95951628684998 0
vt 0.76263242959976 0.95951628684998 0
vt 0.39453440904617 0.99134969711304 0
vt 0.41900342702866 0.99134969711304 0
vt 0.34214544296265 0.04997050762177 0
vt 0.34214544296265 0.24823188781738 0
vt 0.65785449743271 0.24823188781738 0
vt 0.65785449743271 0.04997050762177 0
vt 0.35244113206863 0.99134969711304 0
vt 0.37691015005112 0.99134969711304 0
vt 0.82234996557236 0.99134969711304 0
vt 0.84681898355484 0.99134969711304 0
vt 0.32452118396759 0.24823188781738 0
vt 0.32452118396759 0.04997050762177 0
vt 0.00881211925298 0.04997050762177 0
vt 0.00881211925298 0.24823188781738 0
vt 0.73471254110336 0.99134969711304 0
vt 0.76263242959976 0.99134969711304 0
vt 0.99118787050247 0.24823188781738 0
vt 0.99118787050247 0.22421216964722 0
vt 0.67547875642776 0.22421216964722 0
vt 0.67547875642776 0.24823188781738 0
vt 0.94862973690033 0.61050701141357 0
vt 0.94862973690033 0.5850402712822 0
vt 0.67547875642776 0.10025155544281 0
vt 0.67547875642776 0.12427127361298 0
vt 0.99118787050247 0.12427127361298 0
vt 0.99118787050247 0.10025155544281 0
vt 0.94862973690033 0.69314742088318 0
vt 0.94862973690033 0.68701714277267 0
vt 0.94862973690033 0.67525810003281 0
vt 0.94862973690033 0.6691278219223 0
vt 0.89455735683441 0.32955169677734 0
vt 0.88831239938736 0.32955169677734 0
vt 0.88831239938736 0.52781307697296 0
vt 0.89455735683441 0.52781307697296 0
vt 0.94862973690033 0.65182721614838 0
vt 0.94862973690033 0.64569693803787 0
vt 0.94862973690033 0.633937895298 0
vt 0.94862973690033 0.6278076171875 0
vt 0.92476052045822 0.52781307697296 0
vt 0.93100547790527 0.52781307697296 0
vt 0.93100547790527 0.32955169677734 0
vt 0.92476052045822 0.32955169677734 0
vt 0.94862973690033 0.75176823139191 0
vt 0.94862973690033 0.75789844989777 0
vt 0.94862973690033 0.76965755224228 0
vt 0.94862973690033 0.77578783035278 0
vt 0.87068819999695 0.32955169677734 0
vt 0.86444318294525 0.32955169677734 0
vt 0.86444318294525 0.52781307697296 0
vt 0.87068819999695 0.52781307697296 0
vt 0.99118787050247 0.16559147834778 0
vt 0.99118787050247 0.14157176017761 0
vt 0.67547875642776 0.14157176017761 0
vt 0.67547875642776 0.16559147834778 0
# 154 texture coordinates

o Cube
usemtl Mat.1
f 3/4/1 4/3/1 2/2/1 1/1/1
f 15/8/2 16/7/2 14/6/2 13/5/2
f 7/12/3 8/11/3 6/10/3 5/9/3
f 1/16/4 2/15/4 8/14/4 7/13/4
f 42/20/5 43/19/5 44/18/5 41/17/5
f 5/24/6 3/23/6 1/22/6 7/21/6
f 5/24/6 11/26/6 9/25/6 3/23/6
f 6/10/3 12/28/3 11/27/3 5/9/3
f 4/32/5 10/31/5 12/30/5 6/29/5
f 3/4/1 9/34/1 10/33/1 4/3/1
f 11/26/6 15/36/6 13/35/6 9/25/6
f 12/28/3 16/38/3 15/37/3 11/27/3
f 45/42/5 47/41/5 48/40/5 46/39/5
f 9/34/1 13/44/1 14/43/1 10/33/1
f 4/3/1 18/46/1 17/45/1 2/2/1
f 22/50/7 56/49/7 55/48/7 21/47/7
f 8/11/3 20/52/3 19/51/3 6/10/3
f 2/15/4 17/54/4 20/53/4 8/14/4
f 12/58/4 54/57/4 56/56/4 22/55/4
f 14/43/1 23/60/1 21/59/1 10/33/1
f 16/7/2 24/62/2 23/61/2 14/6/2
f 12/28/3 22/64/3 24/63/3 16/38/3
f 18/46/1 26/66/1 25/65/1 17/45/1
f 40/70/2 48/69/2 47/68/2 39/67/2
f 20/52/3 28/72/3 27/71/3 19/51/3
f 17/54/4 25/74/4 28/73/4 20/53/4
f 38/78/3 46/77/3 48/76/3 40/75/3
f 23/60/1 31/80/1 29/79/1 21/59/1
f 24/62/2 32/82/2 31/81/2 23/61/2
f 22/64/3 30/84/3 32/83/3 24/63/3
f 26/66/1 34/86/8 33/85/1 25/65/1
f 27/90/2 35/89/2 34/88/2 26/87/2
f 28/72/3 36/92/3 35/91/3 27/71/3
f 25/74/4 33/94/4 36/93/4 28/73/4
f 29/98/4 37/97/4 38/96/4 30/95/4
f 31/80/1 39/100/1 37/99/8 29/79/1
f 32/82/2 40/70/2 39/67/2 31/81/2
f 30/84/3 38/78/3 40/75/3 32/83/3
f 34/86/8 42/102/9 41/101/1 33/85/1
f 53/106/1 55/105/1 51/104/1 49/103/1
f 36/92/3 44/108/3 43/107/3 35/91/3
f 33/94/4 41/110/4 44/109/4 36/93/4
f 56/114/3 54/113/3 50/112/3 52/111/3
f 39/100/1 47/116/1 45/115/9 37/99/8
f 30/84/3 22/64/3 19/51/3 27/71/3
f 27/120/5 26/119/5 29/118/5 30/117/5
f 18/122/7 26/121/7 18/122/7 26/121/7
f 22/126/6 21/125/6 18/124/6 19/123/6
f 26/66/1 18/46/1 21/59/1 29/79/1
f 6/130/7 50/129/7 49/128/7 4/127/7
f 19/134/2 52/133/2 50/132/2 6/131/2
f 18/138/7 51/137/7 52/136/7 19/135/7
f 4/142/2 49/141/2 51/140/2 18/139/2
f 10/146/7 53/145/7 54/144/7 12/143/7
f 21/150/4 55/149/4 53/148/4 10/147/4
f 46/77/3 38/78/3 35/91/3 43/107/3
f 34/154/6 35/153/6 38/152/6 37/151/6
f 37/99/8 45/115/9 42/102/9 34/86/8

